<svg width="49" height="49" viewBox="0 0 49 49" fill="none" xmlns="http://www.w3.org/2000/svg">
<path d="M14.3533 0.171348C11.7464 0.294338 9.96625 0.71035 8.41 1.32187C6.79935 1.94956 5.4342 2.79188 4.0759 4.15506C2.71761 5.51825 1.88117 6.88437 1.25788 8.49746C0.654686 10.0571 0.246022 11.8388 0.130871 14.4471C0.0157199 17.0553 -0.00976037 17.8937 0.00297976 24.547C0.0157199 31.2002 0.0451202 32.0342 0.171541 34.6479C0.296003 37.2542 0.710547 39.0339 1.32207 40.5906C1.95075 42.2012 2.79209 43.5659 4.15577 44.9247C5.51946 46.2834 6.88461 47.1179 8.50163 47.7422C10.0598 48.3444 11.842 48.755 14.4498 48.8692C17.0576 48.9834 17.897 49.0098 24.5483 48.9971C31.1996 48.9843 32.0371 48.9549 34.6503 48.831C37.2634 48.707 39.0338 48.2895 40.5911 47.6809C42.2017 47.0508 43.5674 46.2109 44.9252 44.8468C46.283 43.4826 47.1189 42.1155 47.7417 40.5014C48.3454 38.9432 48.7555 37.1611 48.8687 34.5553C48.9829 31.9401 49.0098 31.1052 48.9971 24.4529C48.9844 17.8006 48.9545 16.9666 48.8305 14.354C48.7065 11.7413 48.2915 9.96697 47.6805 8.40926C47.0508 6.79862 46.2104 5.43495 44.8473 4.07519C43.4841 2.71544 42.116 1.87998 40.5024 1.25866C38.9432 0.655469 37.162 0.244358 34.5542 0.131658C31.9464 0.0189572 31.107 -0.00995289 24.4532 0.00278716C17.7995 0.0155272 16.9665 0.0439473 14.3533 0.171348ZM14.6394 44.4616C12.2507 44.3577 10.9536 43.9608 10.0892 43.6286C8.94459 43.1876 8.12922 42.6545 7.26779 41.8014C6.40636 40.9483 5.87716 40.13 5.43027 38.9878C5.09462 38.1234 4.69037 36.8279 4.57865 34.4391C4.45713 31.8573 4.43164 31.0821 4.41743 24.5411C4.40322 18.0001 4.42821 17.2259 4.54141 14.6431C4.64333 12.2563 5.04268 10.9578 5.37441 10.0939C5.81542 8.94777 6.34658 8.13387 7.20164 7.27294C8.0567 6.41201 8.87256 5.88183 10.0157 5.43495C10.8791 5.09782 12.1747 4.697 14.5625 4.58332C17.1463 4.46082 17.9205 4.43632 24.4606 4.42211C31.0007 4.4079 31.7769 4.4324 34.3616 4.54608C36.7485 4.64996 38.0475 5.04539 38.9104 5.37909C40.0555 5.82009 40.8704 6.34978 41.7313 7.2063C42.5923 8.06283 43.1229 8.87574 43.5698 10.0214C43.9074 10.8823 44.3082 12.1774 44.4209 14.5666C44.5439 17.1504 44.5719 17.9251 44.5836 24.4647C44.5954 31.0042 44.5724 31.7809 44.4592 34.3627C44.3548 36.7514 43.9589 38.049 43.6262 38.9143C43.1852 40.0585 42.6535 40.8743 41.798 41.7348C40.9424 42.5952 40.1275 43.1254 38.9839 43.5723C38.1214 43.9089 36.8244 44.3107 34.4386 44.4244C31.8548 44.5459 31.0806 44.5714 24.538 44.5856C17.9955 44.5998 17.2237 44.5733 14.6399 44.4616M34.6125 11.4056C34.6135 11.9871 34.7869 12.5553 35.1108 13.0383C35.4347 13.5212 35.8946 13.8973 36.4322 14.1189C36.9699 14.3405 37.5611 14.3977 38.1313 14.2832C38.7014 14.1687 39.2248 13.8877 39.6353 13.4758C40.0457 13.0638 40.3248 12.5394 40.4372 11.9689C40.5495 11.3983 40.4902 10.8072 40.2666 10.2704C40.0431 9.73359 39.6653 9.27512 39.1812 8.95299C38.697 8.63086 38.1282 8.45954 37.5467 8.46071C36.7671 8.46227 36.0201 8.77338 35.4698 9.32563C34.9196 9.87788 34.6112 10.626 34.6125 11.4056ZM11.9204 24.5244C11.9341 31.4727 17.577 37.0925 24.5238 37.0793C31.4706 37.066 37.0944 31.4237 37.0812 24.4754C37.0679 17.5272 31.4236 11.9059 24.4758 11.9196C17.528 11.9333 11.9072 17.5772 11.9204 24.5244ZM16.3334 24.5156C16.3302 22.9004 16.806 21.3204 17.7008 19.9756C18.5955 18.6308 19.8689 17.5815 21.36 16.9605C22.8511 16.3394 24.4929 16.1744 26.0777 16.4864C27.6625 16.7984 29.1193 17.5733 30.2637 18.7132C31.4081 19.8531 32.1888 21.3067 32.5071 22.8903C32.8253 24.4739 32.6669 26.1163 32.0517 27.6098C31.4365 29.1033 30.3923 30.3809 29.051 31.281C27.7098 32.181 26.1317 32.6631 24.5165 32.6663C23.4439 32.6686 22.3815 32.4595 21.3897 32.0511C20.398 31.6427 19.4964 31.0429 18.7366 30.286C17.9767 29.5291 17.3733 28.63 16.961 27.6399C16.5486 26.6498 16.3354 25.5881 16.3334 24.5156Z" fill="white"/>
</svg>
