<svg width="68" height="68" viewBox="0 0 68 68" fill="none" xmlns="http://www.w3.org/2000/svg">
<circle cx="2.5" cy="2.5" r="2.5" fill="#E54B4B"/>
<circle cx="2.5" cy="18.0555" r="2.5" fill="#E54B4B"/>
<circle cx="2.5" cy="33.6111" r="2.5" fill="#E54B4B"/>
<circle cx="2.5" cy="49.1666" r="2.5" fill="#E54B4B"/>
<circle cx="2.5" cy="64.7222" r="2.5" fill="#E54B4B"/>
<circle cx="18.0556" cy="2.5" r="2.5" fill="#E54B4B"/>
<circle cx="18.0556" cy="18.0555" r="2.5" fill="#E54B4B"/>
<circle cx="18.0556" cy="33.6111" r="2.5" fill="#E54B4B"/>
<circle cx="18.0556" cy="49.1666" r="2.5" fill="#E54B4B"/>
<circle cx="18.0556" cy="64.7222" r="2.5" fill="#E54B4B"/>
<circle cx="33.6111" cy="2.5" r="2.5" fill="#E54B4B"/>
<circle cx="33.6111" cy="18.0555" r="2.5" fill="#E54B4B"/>
<circle cx="33.6111" cy="33.6111" r="2.5" fill="#E54B4B"/>
<circle cx="33.6111" cy="49.1666" r="2.5" fill="#E54B4B"/>
<circle cx="33.6111" cy="64.7222" r="2.5" fill="#E54B4B"/>
<circle cx="49.1667" cy="2.5" r="2.5" fill="#E54B4B"/>
<circle cx="49.1667" cy="18.0555" r="2.5" fill="#E54B4B"/>
<circle cx="49.1667" cy="33.6111" r="2.5" fill="#E54B4B"/>
<circle cx="49.1667" cy="49.1666" r="2.5" fill="#E54B4B"/>
<circle cx="49.1667" cy="64.7222" r="2.5" fill="#E54B4B"/>
<circle cx="64.7222" cy="2.5" r="2.5" fill="#E54B4B"/>
<circle cx="64.7222" cy="18.0555" r="2.5" fill="#E54B4B"/>
<circle cx="64.7222" cy="33.6111" r="2.5" fill="#E54B4B"/>
<circle cx="64.7222" cy="49.1666" r="2.5" fill="#E54B4B"/>
<circle cx="64.7222" cy="64.7222" r="2.5" fill="#E54B4B"/>
</svg>
